<svg viewBox="0 0 40 40"
  xmlns="http://www.w3.org/2000/svg">
  <path d="M25.5,14.7c0-1.5-0.5-2.7-1.6-3.8c-1-1-2.3-1.6-3.8-1.6c-1.5,0-2.7,0.5-3.8,1.6c-1,1-1.6,2.3-1.6,3.8s0.5,2.7,1.6,3.8 c1,1,2.3,1.6,3.8,1.6c1.5,0,2.7-0.5,3.8-1.6C25,17.4,25.5,16.1,25.5,14.7z M30.9,14.7c0,1.5-0.2,2.8-0.7,3.7l-7.6,16.2 c-0.2,0.5-0.6,0.8-1,1.1c-0.4,0.3-0.9,0.4-1.4,0.4c-0.5,0-1-0.1-1.4-0.4c-0.4-0.3-0.8-0.6-1-1.1l-7.6-16.2c-0.5-1-0.7-2.2-0.7-3.7 c0-3,1-5.5,3.1-7.6S17.2,4,20.2,4c3,0,5.5,1,7.6,3.1S30.9,11.7,30.9,14.7L30.9,14.7z"></path>
</svg>